<svg xmlns="http://www.w3.org/2000/svg" width="512" height="512" viewBox="0 0 200 200">
<defs>
<linearGradient id="g" x1="0" y1="0" x2="1" y2="1">
<stop offset="0" stop-color="#F6D98A"/><stop offset="0.55" stop-color="#D4AF37"/><stop offset="1" stop-color="#A9801E"/>
</linearGradient>
<linearGradient id="s" x1="0" y1="0" x2="1" y2="1">
<stop offset="0" stop-color="#F2F3F5"/><stop offset="0.5" stop-color="#C7C9CC"/><stop offset="1" stop-color="#8E9195"/>
</linearGradient>
</defs>
<circle cx="100" cy="100" r="96" fill="#0B0B0C"/>
<circle cx="100" cy="100" r="82" fill="none" stroke="url(#g)" stroke-width="7" stroke-linecap="round" stroke-dasharray="360 155" transform="rotate(33 100 100)"/>
<path d="M104 150 V70 L118 52 L132 70 V150 Z" fill="url(#s)"/>
<path d="M118 52 L118 44 L124 52 Z" fill="#F2F3F5"/>
<path d="M64 150 V92 L98 74 V150 Z" fill="none" stroke="url(#g)" stroke-width="4.5" stroke-linejoin="round"/>
<path d="M74 150 V96 M84 150 V90 M93 150 V85" stroke="url(#g)" stroke-width="3" stroke-linecap="round"/>
<path d="M52 150 L100 112 L148 150" fill="none" stroke="url(#s)" stroke-width="8" stroke-linecap="round" stroke-linejoin="round"/>
<path d="M60 152 L100 122 L140 152" fill="none" stroke="url(#g)" stroke-width="6" stroke-linecap="round" stroke-linejoin="round"/>
<rect x="92" y="132" width="16" height="16" rx="1" fill="url(#g)"/>
<path d="M100 132 V148 M92 140 H108" stroke="#0B0B0C" stroke-width="1.6"/>
</svg>